<svg width="214" height="160" viewBox="0 0 214 160" fill="none" xmlns="http://www.w3.org/2000/svg">
<line x1="0.00469478" y1="158" x2="214.005" y2="159.005" stroke="#FFB958" stroke-width="2"/>
<line x1="56" y1="157" x2="56" y2="1" stroke="#FFB958" stroke-width="2" stroke-linecap="round"/>
<line x1="56" y1="1" x2="146" y2="1" stroke="#FFB958" stroke-width="2" stroke-linecap="round"/>
<line x1="146.414" y1="1" x2="171" y2="25.5858" stroke="#FFB958" stroke-width="2" stroke-linecap="round"/>
<line x1="171" y1="26.0001" x2="170.992" y2="158" stroke="#FFB958" stroke-width="2" stroke-linecap="round"/>
<path d="M145.5 1V26" stroke="#FFB958" stroke-width="2" stroke-linecap="round"/>
<line x1="170" y1="26" x2="146" y2="26" stroke="#FFB958" stroke-width="2" stroke-linecap="round"/>
<line x1="75" y1="43" x2="152" y2="43" stroke="#FFB958" stroke-width="2" stroke-linecap="round"/>
<line x1="75" y1="61" x2="152" y2="61" stroke="#FFB958" stroke-width="2" stroke-linecap="round"/>
<line x1="75" y1="80" x2="152" y2="80" stroke="#FFB958" stroke-width="2" stroke-linecap="round"/>
<line x1="75" y1="99" x2="131" y2="99" stroke="#FFB958" stroke-width="2" stroke-linecap="round"/>
<line x1="75" y1="143" x2="145" y2="143" stroke="#FFB958" stroke-width="2" stroke-linecap="round"/>
<path d="M75 130.5C91 109 103 108.5 87.5 136.5M88 136.5C96.9561 129.658 103.5 125.5 102 135M102.5 135C108.278 131.668 113.018 130.358 115.5 134C121.137 135.872 128.354 135.796 138 134.5" stroke="#FFB958" stroke-width="2" stroke-linecap="round"/>
</svg>
